<svg xmlns="http://www.w3.org/2000/svg" viewBox="0 0 6000 2000" enable-background="new 0 0 6000 2000"><style type="text/css">.st0{fill:url(#SVGID_1_);} .st1{fill:url(#SVGID_2_);} .st2{fill:url(#SVGID_3_);} .st3{fill:url(#SVGID_4_);} .st4{fill:url(#SVGID_5_);} .st5{fill:url(#SVGID_6_);} .st6{fill:url(#SVGID_7_);}</style><linearGradient id="SVGID_1_" gradientUnits="userSpaceOnUse" x1="1703.031" y1="1461.646" x2="1703.031" y2="631.905"><stop offset="0" stop-color="#7CC213"/><stop offset="1" stop-color="#68AB07"/></linearGradient><path class="st0" d="M2009.8 1319.7c-56.2 81.8-131.2 118.7-215.6 133.9-115.3 20.8-225 2.9-320.1-71.1-55-42.8-86.5-102.4-89.7-170.1-5.2-110.1-9.6-221.3-.3-330.8 10.9-128.5 98.1-200.3 216.7-232.7 128.6-35.1 248.8-18.2 351.1 75 49.1 44.7 72.3 102 74.5 167.4 1.7 50.6-.8 101.2.8 151.8 1.3 40.3-17.5 54.1-55.7 53.8-121.1-.9-242.3-.6-363.4-.1-65.1.2-69 4.7-68.2 66.9 1.4 105.1 105.8 180.7 213.6 150.9 34.4-9.5 67.5-28.5 96.9-49.3 20.6-14.6 34.3-19.7 56.5-5.1 31.5 20.7 65.3 38 102.9 59.5zm-308-349.4c42.9 0 85.7-.7 128.6.2 26.7.6 37.9-9.6 39-37.5 3.3-79.5-40.1-126-135.7-141.6-99.3-16.2-191 48.3-192.7 134.6-.6 29.8 8.1 46.2 41.5 44.7 39.7-1.7 79.5-.3 119.3-.4z"/><linearGradient id="SVGID_2_" gradientUnits="userSpaceOnUse" x1="3102.233" y1="1456.264" x2="3102.233" y2="637.307"><stop offset="0" stop-color="#7CC213"/><stop offset="1" stop-color="#68AB07"/></linearGradient><path class="st1" d="M3434.1 1045.7c0 36.8-2 73.7.3 110.3 9.5 150.2-82.4 244.8-208.5 281.1-120.4 34.6-238.2 24.6-346.2-46.7-72.2-47.6-108.5-114.5-109.3-200.4-.9-85.8-.8-171.6-1-257.4-.4-131.6 51.9-211.8 175.3-261.7 134.3-54.3 263.7-43.4 384.1 38.9 70.4 48.1 106.3 116.4 105.9 202.6-.2 44.4 0 88.9 0 133.3h-.6zm-157.6 1.4h-.4c0-33.7.1-67.4 0-101.1-.3-83-34.6-129.1-116.7-144-38.2-6.9-80.2-7.2-118.1.9-51.4 11-106.2 33.9-110.7 94.8-6.9 92.8-7.2 186.7-1.2 279.6 1.9 30 26.7 65.3 51.3 85.7 43.6 36.2 99.1 46.6 156.1 37.3 95.6-15.6 139.8-68.7 139.6-166 .1-29 .1-58.1.1-87.2z"/><linearGradient id="SVGID_3_" gradientUnits="userSpaceOnUse" x1="4281.601" y1="1452.169" x2="4281.601" y2="636.773"><stop offset="0" stop-color="#7CC213"/><stop offset="1" stop-color="#68AB07"/></linearGradient><path class="st2" d="M4613.3 1048.9c0 36.8-2.4 73.7.4 110.2 12 156.7-85 245.5-205 276-106.2 27-216.8 24.7-318.7-27.9-88.8-45.9-137.4-117.8-136.9-221 .4-85.7-2.7-171.4-4.5-257.1-2.3-110.5 46.1-192.7 143.5-242.1 145.8-74 289.5-67.5 424.5 27.4 64.9 45.6 99.6 110.3 97.9 192.1-1 47.5-.2 94.9-.2 142.4h-1zm-158.8-1.3h-.3c0-35.2.1-70.4 0-105.6-.2-85.1-33-127.3-117.5-141-35.6-5.8-73.7-5.7-109.2.4-83.5 14.3-120.2 61.6-120.6 146.2-.3 70.4-.1 140.8-.7 211.3-.4 44.9 17.9 79.5 54.6 105 50.4 35 106.2 46.7 165.9 35.2 88.2-17.1 128-66.4 127.9-155-.1-32.2-.1-64.4-.1-96.5z"/><linearGradient id="SVGID_4_" gradientUnits="userSpaceOnUse" x1="2396.565" y1="1460.474" x2="2396.565" y2="649.689"><stop offset="0" stop-color="#7CC213"/><stop offset="1" stop-color="#68AB07"/></linearGradient><path class="st3" d="M2123.7 832.3c-24-46.2-46.2-89.2-70-135.1 227-62.6 456.4-63.8 685.7-.7-21.5 44.2-41 86.2-62.9 126.9-3 5.7-18.3 8-27.2 6.7-39.3-5.7-78.4-12.5-117.4-20.3-38-7.6-55.4 1.4-55 45.5 1.7 182.5-1.2 365 .6 547.5.4 43.9-11.8 59.1-56.8 57.5-117.2-4.1-99.7 13.5-100.5-100.2-1.2-168.7-2-337.4-.5-506.1.4-40.7-14.7-51.8-51.7-45.3-48 8.6-96.2 15.8-144.3 23.6z"/><linearGradient id="SVGID_5_" gradientUnits="userSpaceOnUse" x1="1165.165" y1="982.729" x2="1165.165" y2="190.49"><stop offset="0" stop-color="#70B317"/><stop offset="1" stop-color="#5A9E03"/></linearGradient><path class="st4" d="M1382.3 657.7c-89.1 83.8-116.7 182.2-110.5 292.4 1.3 23.2-8.1 36.2-32.2 31.7-91.8-17.2-178.5-46.7-241.2-120.6-59.7-70.4-64.4-150.7-25-231.4 20.6-42.2 48.3-81.8 77.4-119 77.4-98.8 156.9-196 236.6-293 9.7-11.8 25.6-18.4 38.6-27.4l12.3 11.1c-7.8 18.8-16.3 37.2-23.2 56.3-29.5 81.8-65.8 162-85.8 246-22.6 95.1 12.1 134.7 110 149.7 10.6 1.7 21.2 2.2 43 4.2z"/><linearGradient id="SVGID_6_" gradientUnits="userSpaceOnUse" x1="4837.619" y1="980.555" x2="4837.619" y2="191.565"><stop offset="0" stop-color="#70B317"/><stop offset="1" stop-color="#5A9E03"/></linearGradient><path class="st5" d="M4673 191.6c11.6 5.8 26.9 8.6 34.2 17.8 100.2 125.8 200.6 251.5 298 379.5 37.9 49.8 56.6 108.6 44.8 172.8-21.6 117.3-109.4 168.2-210.3 201.6-91.1 30.1-95.1 27.9-104.7-64.6-9.4-90.4-38.5-169.4-113.3-237.2 25-5 44-8.8 63-12.5 73.5-14.4 108.3-54.7 89.9-126.2-23.9-92.7-60-182.3-91.2-273.2-5.4-15.6-12.6-30.5-19-45.7 2.8-4.1 5.7-8.2 8.6-12.3z"/><linearGradient id="SVGID_7_" gradientUnits="userSpaceOnUse" x1="3746.813" y1="1460.533" x2="3746.813" y2="637.843"><stop offset="0" stop-color="#7CC213"/><stop offset="1" stop-color="#68AB07"/></linearGradient><path class="st6" d="M3943.3 643.3c-35.6 51.6-68.1 102.2-104.8 149.6-9.9 12.8-32.3 15.9-49.1 23.2-52.2 22.7-81.4 56.6-80.2 119.3 3.1 156.3-.5 312.7 1.2 469 .4 40.6-9.3 57.6-53.7 56-122.7-4.5-103.2 16-104.5-105.2-1.6-138-1.4-275.9-1.9-413.9-.5-146.6 58.3-230.6 196.9-279.6 64-22.5 129.6-30.1 196.1-18.4z"/></svg>